<?xml version="1.0" standalone="no"?>
<!DOCTYPE svg PUBLIC "-//W3C//DTD SVG 20010904//EN"
 "http://www.w3.org/TR/2001/REC-SVG-20010904/DTD/svg10.dtd">
<svg version="1.0" xmlns="http://www.w3.org/2000/svg"
 width="999.000000pt" height="1000.000000pt" viewBox="0 0 999.000000 1000.000000"
 preserveAspectRatio="xMidYMid meet">

<g transform="translate(0.000000,1000.000000) scale(0.100000,-0.100000)"
fill="#000000" stroke="none">
<path d="M4765 7854 c-16 -2 -73 -9 -125 -15 -379 -43 -795 -188 -1134 -396
-336 -206 -674 -533 -889 -861 -230 -350 -378 -739 -443 -1164 -25 -163 -30
-542 -9 -718 63 -553 268 -1042 616 -1475 110 -136 323 -348 449 -447 442
-343 944 -543 1504 -599 166 -16 513 -6 681 20 496 76 941 268 1345 581 115
89 361 333 454 450 274 346 472 759 561 1175 51 236 59 325 59 605 1 282 -9
386 -59 615 -181 837 -747 1560 -1520 1940 -296 145 -538 221 -869 271 -96 15
-550 28 -621 18z m1090 -2410 c14 -6 15 -28 10 -208 -3 -110 -8 -240 -10 -289
-2 -53 0 -85 6 -82 5 4 9 12 9 19 0 7 11 35 25 62 14 27 25 55 25 62 0 8 6 26
14 40 8 15 18 44 21 65 5 30 22 53 92 122 75 73 90 84 112 78 75 -17 79 -44
16 -93 -51 -40 -99 -108 -68 -95 10 4 45 9 79 12 58 5 62 4 97 -28 20 -19 37
-39 37 -45 0 -8 15 -10 43 -7 90 10 104 -53 16 -70 -24 -5 -51 -15 -60 -23 -8
-8 -20 -14 -25 -14 -13 0 -37 -57 -29 -70 3 -5 0 -10 -8 -10 -14 0 -42 -35
-67 -84 -21 -42 -79 -96 -109 -102 -14 -3 -34 -10 -44 -15 -23 -12 -62 10 -72
41 -11 35 25 121 66 160 41 38 41 39 115 93 87 62 76 114 -14 68 -20 -10 -41
-20 -47 -20 -5 -1 -21 -5 -34 -8 -13 -3 -32 -1 -42 6 -27 16 -29 15 -29 -24 0
-40 -24 -172 -41 -225 -24 -76 -94 -114 -131 -72 -25 27 -48 90 -54 148 l-7
53 -32 -35 c-42 -44 -81 -46 -129 -4 l-34 30 -15 -62 c-9 -35 -19 -75 -22 -91
-7 -35 -39 -67 -66 -67 -12 0 -36 15 -53 33 -27 26 -34 42 -40 92 -6 60 9 288
20 307 4 6 -3 5 -15 -2 -12 -6 -27 -23 -32 -38 -6 -15 -14 -29 -18 -32 -5 -3
-23 -34 -41 -70 -18 -36 -39 -73 -48 -82 -17 -20 -63 -24 -92 -8 -30 16 -55
77 -43 103 5 12 18 47 27 77 26 79 73 150 112 166 32 14 48 12 90 -8 16 -8 29
-4 59 16 45 31 68 33 95 6 24 -24 24 -39 4 -150 -8 -47 -17 -121 -20 -165 l-5
-80 26 75 c14 41 32 89 39 105 8 17 17 50 21 75 18 119 42 152 92 128 45 -21
54 -52 51 -160 -2 -60 1 -98 7 -99 6 -1 25 26 42 61 32 62 33 67 39 239 4 97
11 182 17 189 10 13 45 16 72 6z m-795 -29 c11 -13 11 -32 0 -103 -7 -48 -16
-94 -20 -102 -14 -27 -19 -154 -10 -220 13 -90 3 -147 -28 -168 -23 -15 -25
-15 -38 2 -7 10 -25 52 -40 94 -16 42 -35 83 -44 92 -9 9 -33 51 -54 93 -20
42 -38 77 -40 77 -2 0 -3 -77 -5 -284 -1 -83 -45 -122 -86 -76 -18 20 -21 40
-27 225 -2 40 11 260 18 302 4 28 14 49 27 58 48 34 76 12 132 -101 20 -41 43
-74 51 -74 8 0 14 -10 14 -23 0 -12 9 -40 20 -62 l20 -39 0 34 c0 37 19 229
26 268 4 18 11 22 38 22 18 0 39 -7 46 -15z m-1146 -18 c22 -22 34 -84 52
-276 3 -24 9 -52 14 -62 6 -10 10 -31 10 -48 0 -16 7 -56 15 -88 8 -31 15 -71
15 -87 0 -33 -34 -76 -60 -76 -39 0 -80 81 -80 160 0 56 -10 64 -61 49 -57
-16 -63 -23 -84 -89 -25 -79 -40 -100 -74 -100 -17 0 -31 6 -35 15 -3 9 6 55
19 103 15 51 23 97 20 113 -4 18 -1 30 8 36 7 4 19 31 27 58 13 51 27 88 75
208 41 101 91 132 139 84z m186 13 c31 -17 56 -132 75 -345 1 -11 5 -37 9 -58
l8 -37 45 92 c119 248 131 268 169 268 41 0 38 -25 -12 -117 -26 -48 -51 -95
-55 -103 -4 -8 -15 -61 -24 -118 -9 -56 -25 -122 -35 -145 -27 -61 -82 -84
-127 -52 -30 21 -76 180 -98 340 -7 50 -15 101 -18 115 -16 73 -17 139 -1 154
18 19 38 20 64 6z m1564 -76 c24 -24 17 -57 -14 -74 -25 -13 -50 -2 -61 27
-19 51 37 86 75 47z"/>
<path d="M6109 4826 c-33 -28 -64 -75 -56 -83 9 -9 37 17 64 60 29 47 27 53
-8 23z"/>
<path d="M3812 5131 c-28 -68 -28 -68 8 -63 26 4 30 8 29 36 -1 17 -4 42 -8
56 -6 22 -9 19 -29 -29z"/>
</g>
</svg>
